<svg width="150" height="150" fill="none" xmlns="http://www.w3.org/2000/svg"><path d="M98.438 89.063a4.688 4.688 0 0 1-4.688 4.687h-37.5a4.688 4.688 0 0 1 0-9.375h37.5a4.688 4.688 0 0 1 4.688 4.688ZM93.75 65.624h-37.5a4.688 4.688 0 0 0 0 9.375h37.5a4.688 4.688 0 0 0 0-9.375Zm32.812-37.5v98.438a9.377 9.377 0 0 1-9.374 9.375H32.812a9.376 9.376 0 0 1-9.374-9.375V28.125a9.375 9.375 0 0 1 9.375-9.375h21.246a28.077 28.077 0 0 1 41.882 0h21.247a9.377 9.377 0 0 1 9.374 9.375ZM56.25 37.5h37.5a18.75 18.75 0 1 0-37.5 0Zm60.938-9.375h-15.674a28.088 28.088 0 0 1 1.611 9.375v4.688a4.688 4.688 0 0 1-4.688 4.687H51.563a4.688 4.688 0 0 1-4.688-4.688V37.5c0-3.194.545-6.364 1.611-9.375H32.813v98.438h84.375V28.125Z" fill="#FFF4D8"/></svg>