<svg width="150" height="150" fill="none" xmlns="http://www.w3.org/2000/svg"><path d="M82.031 119.531a7.034 7.034 0 0 1-4.34 6.496 7.027 7.027 0 0 1-7.663-1.524 7.029 7.029 0 0 1 1.066-10.818 7.028 7.028 0 0 1 8.878.874 7.032 7.032 0 0 1 2.06 4.972Zm56.883-68.554a100.78 100.78 0 0 0-127.828 0 4.69 4.69 0 1 0 5.953 7.248 91.407 91.407 0 0 1 115.922 0 4.69 4.69 0 1 0 5.953-7.248Zm-18.797 20.959a72.656 72.656 0 0 0-90.199 0 4.688 4.688 0 1 0 5.824 7.347 63.282 63.282 0 0 1 78.551 0 4.677 4.677 0 0 0 3.451.984 4.692 4.692 0 0 0 3.97-3.373 4.68 4.68 0 0 0-1.597-4.958Zm-18.902 20.953a44.561 44.561 0 0 0-52.395 0 4.69 4.69 0 0 0 5.52 7.582 35.155 35.155 0 0 1 41.355 0 4.69 4.69 0 0 0 5.52-7.582Z" fill="#FFF4D8"/></svg>