<svg width="150" height="150" fill="none" xmlns="http://www.w3.org/2000/svg"><path d="M46.875 32.813v-18.75a4.688 4.688 0 0 1 9.375 0v18.75a4.688 4.688 0 0 1-9.375 0ZM70.313 37.5A4.688 4.688 0 0 0 75 32.812v-18.75a4.688 4.688 0 0 0-9.375 0v18.75a4.688 4.688 0 0 0 4.688 4.688Zm18.75 0a4.688 4.688 0 0 0 4.687-4.688v-18.75a4.688 4.688 0 0 0-9.375 0v18.75a4.688 4.688 0 0 0 4.688 4.688Zm56.249 32.813V75a23.436 23.436 0 0 1-21.978 23.385 56.593 56.593 0 0 1-15.82 23.49h14.361a4.686 4.686 0 0 1 3.315 8.002 4.69 4.69 0 0 1-3.315 1.373H18.75a4.688 4.688 0 0 1 0-9.375h14.379a56.428 56.428 0 0 1-19.066-42.188V51.564a4.688 4.688 0 0 1 4.687-4.688h103.125a23.439 23.439 0 0 1 23.437 23.438ZM117.188 56.25h-93.75v23.438a47.032 47.032 0 0 0 26.437 42.187H90.75a47.036 47.036 0 0 0 26.438-42.188V56.25Zm18.75 14.063a14.063 14.063 0 0 0-9.376-13.254v22.629a56.001 56.001 0 0 1-.703 8.789A14.061 14.061 0 0 0 135.938 75v-4.688Z" fill="#FFF4D8"/></svg>