<svg width="150" height="150" fill="none" xmlns="http://www.w3.org/2000/svg"><path d="M126.562 23.438H23.438a9.375 9.375 0 0 0-9.375 9.375v84.375a9.377 9.377 0 0 0 9.374 9.374h7.846a4.681 4.681 0 0 0 4.236-2.677 28.125 28.125 0 0 1 50.837 0 4.688 4.688 0 0 0 4.236 2.677h35.97a9.377 9.377 0 0 0 9.376-9.374V32.812a9.376 9.376 0 0 0-9.376-9.374ZM46.875 84.374a14.063 14.063 0 1 1 28.125 0 14.063 14.063 0 0 1-28.125 0Zm79.687 32.813H93.416a37.73 37.73 0 0 0-16.893-15.329 23.435 23.435 0 0 0-2.284-36.8 23.438 23.438 0 0 0-28.887 36.8 37.73 37.73 0 0 0-16.893 15.329h-5.021V32.812h103.124v84.376ZM32.812 56.25v-9.375a4.688 4.688 0 0 1 4.688-4.688h75a4.69 4.69 0 0 1 4.688 4.688v56.25a4.69 4.69 0 0 1-4.688 4.687h-9.375a4.688 4.688 0 1 1 0-9.374h4.687V51.562H42.188v4.688a4.688 4.688 0 0 1-9.376 0Z" fill="#FFF4D8"/></svg>