<svg width="30" height="30" viewBox="0 0 30 30" fill="none" xmlns="http://www.w3.org/2000/svg">
<path d="M27.4805 13.4039L22.1953 18.0164L23.7785 24.8836C23.8623 25.2426 23.8384 25.6183 23.7098 25.9638C23.5812 26.3093 23.3536 26.6092 23.0555 26.826C22.7574 27.0429 22.4019 27.167 22.0336 27.183C21.6654 27.1989 21.3005 27.1059 20.9848 26.9156L14.9953 23.2828L9.01878 26.9156C8.70304 27.1059 8.33821 27.1989 7.96992 27.183C7.60162 27.167 7.24619 27.0429 6.94807 26.826C6.64994 26.6092 6.42235 26.3093 6.29375 25.9638C6.16515 25.6183 6.14125 25.2426 6.22503 24.8836L7.80589 18.0234L2.51956 13.4039C2.23996 13.1628 2.03778 12.8444 1.93837 12.4889C1.83897 12.1333 1.84676 11.7562 1.96077 11.4051C2.07479 11.0539 2.28995 10.7442 2.57927 10.5148C2.8686 10.2854 3.21921 10.1466 3.58714 10.1156L10.5551 9.51212L13.275 3.02462C13.4171 2.68421 13.6566 2.39343 13.9636 2.18891C14.2706 1.98438 14.6312 1.87524 15 1.87524C15.3689 1.87524 15.7295 1.98438 16.0364 2.18891C16.3434 2.39343 16.583 2.68421 16.725 3.02462L19.4531 9.51212L26.4188 10.1156C26.7867 10.1466 27.1373 10.2854 27.4266 10.5148C27.716 10.7442 27.9311 11.0539 28.0451 11.4051C28.1592 11.7562 28.1669 12.1333 28.0675 12.4889C27.9681 12.8444 27.766 13.1628 27.4864 13.4039H27.4805Z" fill="#F39C11"/>
</svg>
